<svg xmlns="http://www.w3.org/2000/svg" xmlns:xlink="http://www.w3.org/1999/xlink" version="1.1" style="shape-rendering:geometricPrecision; text-rendering:geometricPrecision; image-rendering:optimizeQuality; fill-rule:evenodd; clip-rule:evenodd" viewBox="1342.66 53.5 531.6 524">

<g><path style="opacity:0.986" fill="#314572" d="M 1748.5,243.5 C 1722.42,179.6 1674.75,145.933 1605.5,142.5C 1542.38,146.298 1497.21,176.631 1470,233.5C 1453.08,277.036 1455.08,319.703 1476,361.5C 1478.13,365.589 1480.63,369.423 1483.5,373C 1482.94,373.383 1482.61,373.883 1482.5,374.5C 1464.32,380.129 1445.99,385.296 1427.5,390C 1408.97,393.989 1390.3,394.989 1371.5,393C 1343.26,388.013 1335.76,372.846 1349,347.5C 1355.6,337.396 1363.77,328.729 1373.5,321.5C 1373.83,321.833 1374.17,322.167 1374.5,322.5C 1351.06,358.952 1361.06,373.786 1404.5,367C 1410.59,366.383 1416.42,364.883 1422,362.5C 1419.27,347.019 1417.44,331.352 1416.5,315.5C 1416.87,308.585 1416.2,301.919 1414.5,295.5C 1412.96,232.276 1418.13,169.61 1430,107.5C 1490.78,112.098 1546.28,97.2642 1596.5,63C 1600.33,59.8333 1604.17,56.6667 1608,53.5C 1660.32,94.5445 1719.82,112.545 1786.5,107.5C 1792.89,140.934 1797.55,174.6 1800.5,208.5C 1783.48,220.672 1766.15,232.339 1748.5,243.5 Z"/></g>


<g><path style="opacity:0.982" fill="#f48d34" d="M 1484.5,397.5 C 1522.1,451.948 1573.77,473.448 1639.5,462C 1697.52,445.984 1734.02,408.817 1749,350.5C 1751.26,339.932 1752.76,329.265 1753.5,318.5C 1755.44,302.522 1755.78,286.522 1754.5,270.5C 1784.73,251.789 1812.23,229.455 1837,203.5C 1842.67,196.844 1847.33,189.51 1851,181.5C 1854.32,173.636 1852.15,167.803 1844.5,164C 1832.5,158.294 1819.84,155.961 1806.5,157C 1821.63,151.943 1836.97,151.277 1852.5,155C 1871.69,161.885 1878.19,175.052 1872,194.5C 1861.43,211.749 1848.6,227.249 1833.5,241C 1823.63,249.876 1813.46,258.376 1803,266.5C 1803.26,308.16 1798.26,349.16 1788,389.5C 1776.74,426.356 1758.41,459.023 1733,487.5C 1698.06,525.45 1657.22,555.284 1610.5,577C 1609.17,577.667 1607.83,577.667 1606.5,577C 1548.15,550.257 1499.98,511.09 1462,459.5C 1451.82,444.633 1443.32,428.8 1436.5,412C 1452.61,407.464 1468.61,402.63 1484.5,397.5 Z"/></g>


<g><path style="opacity:1" fill="#314672" d="M 1586.5,263.5 C 1585.5,238.005 1585.17,212.339 1585.5,186.5C 1619.91,179.771 1650.58,187.771 1677.5,210.5C 1647.43,228.558 1617.1,246.224 1586.5,263.5 Z"/></g>



<g><path style="opacity:1" fill="#304672" d="M 1570.5,190.5 C 1572.49,226.151 1573.16,262.151 1572.5,298.5C 1552.02,286.426 1531.36,274.592 1510.5,263C 1508.03,261.784 1506.03,260.117 1504.5,258C 1516.24,225.425 1538.24,202.925 1570.5,190.5 Z"/></g>

<g><path style="opacity:1" fill="#314773" d="M 1685.5,219.5 C 1687.37,219.859 1688.87,220.859 1690,222.5C 1710.37,248.477 1717.87,277.811 1712.5,310.5C 1681.91,293.232 1651.57,275.566 1621.5,257.5C 1643.13,245.169 1664.47,232.502 1685.5,219.5 Z"/></g>

<g><path style="opacity:1" fill="#314772" d="M 1501.5,271.5 C 1533.17,289.332 1564.5,307.665 1595.5,326.5C 1573.79,339.688 1551.79,352.355 1529.5,364.5C 1515.44,350.724 1506.27,334.057 1502,314.5C 1498.98,300.166 1498.82,285.832 1501.5,271.5 Z"/></g>
<g><path style="opacity:1" fill="#304672" d="M 1644.5,285.5 C 1666.56,297.854 1688.22,310.688 1709.5,324C 1698.6,356.4 1677.27,378.9 1645.5,391.5C 1644.5,356.173 1644.17,320.84 1644.5,285.5 Z"/></g>
<g><path style="opacity:0.902" fill="#f48d34" d="M 1414.5,295.5 C 1416.2,301.919 1416.87,308.585 1416.5,315.5C 1399.23,320.951 1386.39,331.617 1378,347.5C 1375.44,336.081 1377.77,325.748 1385,316.5C 1393.06,306.926 1402.9,299.926 1414.5,295.5 Z"/></g>

<g><path style="opacity:1" fill="#314672" d="M 1631.5,319.5 C 1632.83,344.67 1632.83,370.003 1631.5,395.5C 1596.92,403.518 1565.92,396.351 1538.5,374C 1569.56,355.807 1600.56,337.64 1631.5,319.5 Z"/></g>

<g><path style="opacity:1" fill="#b86a28" d="M 1753.5,318.5 C 1752.76,329.265 1751.26,339.932 1749,350.5C 1734.02,408.817 1697.52,445.984 1639.5,462C 1573.77,473.448 1522.1,451.948 1484.5,397.5C 1488.98,396.01 1493.32,394.343 1497.5,392.5C 1532.08,427.641 1574.08,443.141 1623.5,439C 1693.39,427.271 1736.72,387.105 1753.5,318.5 Z"/></g>

</svg>