<?xml version="1.0" encoding="UTF-8"?>
<!DOCTYPE svg PUBLIC "-//W3C//DTD SVG 1.1//EN" "http://www.w3.org/Graphics/SVG/1.1/DTD/svg11.dtd">
<svg xmlns="http://www.w3.org/2000/svg" version="1.1" width="3222px" height="879px" style="shape-rendering:geometricPrecision; text-rendering:geometricPrecision; image-rendering:optimizeQuality; fill-rule:evenodd; clip-rule:evenodd" xmlns:xlink="http://www.w3.org/1999/xlink">
<g><path style="opacity:0.976" fill="#f9ab4a" d="M 164.5,-0.5 C 176.167,-0.5 187.833,-0.5 199.5,-0.5C 243.701,4.18397 280.868,22.8506 311,55.5C 312.07,59.8368 312.737,64.1701 313,68.5C 304.697,75.8022 296.697,83.4689 289,91.5C 269.238,59.856 240.738,41.6894 203.5,37C 158.019,32.6537 124.519,50.487 103,90.5C 90.7447,116.436 84.0781,143.769 83,172.5C 80.0681,206.924 83.7348,240.59 94,273.5C 116.858,330.677 158.691,354.177 219.5,344C 240.598,339.373 258.431,329.207 273,313.5C 278.1,306.289 283.433,299.289 289,292.5C 298.625,301.124 307.958,310.124 317,319.5C 297.526,344.921 272.692,363.754 242.5,376C 188.561,393.03 136.561,388.364 86.5,362C 33.3987,328.994 4.39875,281.161 -0.5,218.5C -0.5,205.833 -0.5,193.167 -0.5,180.5C 2.53691,145.881 12.3702,113.214 29,82.5C 52.6804,41.8441 87.5137,16.0107 133.5,5C 143.902,2.73309 154.236,0.899753 164.5,-0.5 Z"/></g>
<g><path style="opacity:0.986" fill="#314572" d="M 1748.5,243.5 C 1722.42,179.6 1674.75,145.933 1605.5,142.5C 1542.38,146.298 1497.21,176.631 1470,233.5C 1453.08,277.036 1455.08,319.703 1476,361.5C 1478.13,365.589 1480.63,369.423 1483.5,373C 1482.94,373.383 1482.61,373.883 1482.5,374.5C 1464.32,380.129 1445.99,385.296 1427.5,390C 1408.97,393.989 1390.3,394.989 1371.5,393C 1343.26,388.013 1335.76,372.846 1349,347.5C 1355.6,337.396 1363.77,328.729 1373.5,321.5C 1373.83,321.833 1374.17,322.167 1374.5,322.5C 1351.06,358.952 1361.06,373.786 1404.5,367C 1410.59,366.383 1416.42,364.883 1422,362.5C 1419.27,347.019 1417.44,331.352 1416.5,315.5C 1416.87,308.585 1416.2,301.919 1414.5,295.5C 1412.96,232.276 1418.13,169.61 1430,107.5C 1490.78,112.098 1546.28,97.2642 1596.5,63C 1600.33,59.8333 1604.17,56.6667 1608,53.5C 1660.32,94.5445 1719.82,112.545 1786.5,107.5C 1792.89,140.934 1797.55,174.6 1800.5,208.5C 1783.48,220.672 1766.15,232.339 1748.5,243.5 Z"/></g>
<g><path style="opacity:0.976" fill="#f9ab4a" d="M 611.5,59.5 C 629.833,59.5 648.167,59.5 666.5,59.5C 666.167,102.838 666.5,146.172 667.5,189.5C 697.697,171.965 729.031,169.798 761.5,183C 790.278,197.121 807.778,219.954 814,251.5C 817.316,273.503 817.316,295.503 814,317.5C 804.643,353.192 782.476,377.026 747.5,389C 722.511,396.179 698.178,394.512 674.5,384C 671.734,382.533 669.234,380.7 667,378.5C 666.501,383.489 666.334,388.489 666.5,393.5C 648.167,393.5 629.833,393.5 611.5,393.5C 611.5,282.167 611.5,170.833 611.5,59.5 Z M 704.5,209.5 C 725.957,206.976 741.457,215.309 751,234.5C 754.586,243.51 756.919,252.844 758,262.5C 758.876,277.536 758.543,292.536 757,307.5C 755.475,326.392 747.308,341.558 732.5,353C 717.16,361.594 701.827,361.594 686.5,353C 679.352,347.85 672.852,342.017 667,335.5C 666.333,301.167 666.333,266.833 667,232.5C 677.329,221.095 689.829,213.429 704.5,209.5 Z"/></g>
<g><path style="opacity:0.999" fill="#fcfcfc" d="M 1748.5,243.5 C 1751.26,252.321 1753.26,261.321 1754.5,270.5C 1755.78,286.522 1755.44,302.522 1753.5,318.5C 1736.72,387.105 1693.39,427.271 1623.5,439C 1574.08,443.141 1532.08,427.641 1497.5,392.5C 1492.47,386.475 1487.47,380.475 1482.5,374.5C 1482.61,373.883 1482.94,373.383 1483.5,373C 1480.63,369.423 1478.13,365.589 1476,361.5C 1455.08,319.703 1453.08,277.036 1470,233.5C 1497.21,176.631 1542.38,146.298 1605.5,142.5C 1674.75,145.933 1722.42,179.6 1748.5,243.5 Z"/></g>
<g><path style="opacity:0.982" fill="#f48d34" d="M 1484.5,397.5 C 1522.1,451.948 1573.77,473.448 1639.5,462C 1697.52,445.984 1734.02,408.817 1749,350.5C 1751.26,339.932 1752.76,329.265 1753.5,318.5C 1755.44,302.522 1755.78,286.522 1754.5,270.5C 1784.73,251.789 1812.23,229.455 1837,203.5C 1842.67,196.844 1847.33,189.51 1851,181.5C 1854.32,173.636 1852.15,167.803 1844.5,164C 1832.5,158.294 1819.84,155.961 1806.5,157C 1821.63,151.943 1836.97,151.277 1852.5,155C 1871.69,161.885 1878.19,175.052 1872,194.5C 1861.43,211.749 1848.6,227.249 1833.5,241C 1823.63,249.876 1813.46,258.376 1803,266.5C 1803.26,308.16 1798.26,349.16 1788,389.5C 1776.74,426.356 1758.41,459.023 1733,487.5C 1698.06,525.45 1657.22,555.284 1610.5,577C 1609.17,577.667 1607.83,577.667 1606.5,577C 1548.15,550.257 1499.98,511.09 1462,459.5C 1451.82,444.633 1443.32,428.8 1436.5,412C 1452.61,407.464 1468.61,402.63 1484.5,397.5 Z"/></g>
<g><path style="opacity:0.972" fill="#f9ab4a" d="M 1143.5,169.5 C 1161.17,169.5 1178.83,169.5 1196.5,169.5C 1196.33,176.175 1196.5,182.842 1197,189.5C 1215.43,173.897 1236.26,169.731 1259.5,177C 1263.5,178.667 1267.5,180.333 1271.5,182C 1273.63,183.051 1275.29,184.551 1276.5,186.5C 1271.43,197.648 1266.09,208.648 1260.5,219.5C 1253.08,214.375 1244.91,211.041 1236,209.5C 1214.44,216.085 1202.77,230.752 1201,253.5C 1199.63,297.82 1199.13,342.153 1199.5,386.5C 1180.83,386.5 1162.17,386.5 1143.5,386.5C 1143.5,314.167 1143.5,241.833 1143.5,169.5 Z"/></g>
<g><path style="opacity:0.972" fill="#f9ab4a" d="M 977.5,174.5 C 998.212,172.396 1017.88,175.896 1036.5,185C 1065.39,204.298 1078.06,231.465 1074.5,266.5C 1033.17,266.5 991.833,266.5 950.5,266.5C 950.325,284.714 952.158,302.714 956,320.5C 964.594,352.379 984.761,363.879 1016.5,355C 1020.83,353.171 1024.83,350.838 1028.5,348C 1036,341.117 1042.66,333.617 1048.5,325.5C 1057.03,333.195 1065.03,341.362 1072.5,350C 1053.9,378.81 1027.23,393.31 992.5,393.5C 953.057,391.859 923.224,374.192 903,340.5C 886.46,303.217 886.46,265.883 903,228.5C 919.114,198.369 943.947,180.369 977.5,174.5 Z M 980.5,208.5 C 1000.99,206.073 1014.99,214.406 1022.5,233.5C 1000.18,234.5 977.843,234.833 955.5,234.5C 958.457,220.545 966.79,211.879 980.5,208.5 Z"/></g>
<g><path style="opacity:1" fill="#314672" d="M 1586.5,263.5 C 1585.5,238.005 1585.17,212.339 1585.5,186.5C 1619.91,179.771 1650.58,187.771 1677.5,210.5C 1647.43,228.558 1617.1,246.224 1586.5,263.5 Z"/></g>
<g><path style="opacity:1" fill="#97a2b8" d="M 1585.5,186.5 C 1585.17,212.339 1585.5,238.005 1586.5,263.5C 1586.44,264.043 1586.11,264.376 1585.5,264.5C 1584.17,238.336 1584.17,212.336 1585.5,186.5 Z"/></g>
<g><path style="opacity:1" fill="#8491ab" d="M 1570.5,190.5 C 1571.21,189.596 1572.21,189.263 1573.5,189.5C 1573.83,226.004 1573.5,262.337 1572.5,298.5C 1573.16,262.151 1572.49,226.151 1570.5,190.5 Z"/></g>
<g><path style="opacity:0.969" fill="#f9ab4a" d="M 323.5,191.5 C 343.569,190.169 363.736,190.169 384,191.5C 403.806,235.917 423.806,280.251 444,324.5C 463.591,280.314 482.924,235.981 502,191.5C 513.771,190.18 525.605,190.18 537.5,191.5C 490.295,298.741 442.962,405.907 395.5,513C 383.819,513.833 372.152,513.666 360.5,512.5C 378.361,472.249 396.028,431.916 413.5,391.5C 383.45,324.743 353.45,258.077 323.5,191.5 Z"/></g>
<g><path style="opacity:1" fill="#304672" d="M 1570.5,190.5 C 1572.49,226.151 1573.16,262.151 1572.5,298.5C 1552.02,286.426 1531.36,274.592 1510.5,263C 1508.03,261.784 1506.03,260.117 1504.5,258C 1516.24,225.425 1538.24,202.925 1570.5,190.5 Z"/></g>
<g><path style="opacity:0.964" fill="#314572" d="M 2390.5,197.5 C 2401.08,197.18 2411.58,197.513 2422,198.5C 2422.5,296.499 2422.67,394.499 2422.5,492.5C 2411.83,492.5 2401.17,492.5 2390.5,492.5C 2390.5,394.167 2390.5,295.833 2390.5,197.5 Z"/></g>
<g><path style="opacity:1" fill="#314773" d="M 1685.5,219.5 C 1687.37,219.859 1688.87,220.859 1690,222.5C 1710.37,248.477 1717.87,277.811 1712.5,310.5C 1681.91,293.232 1651.57,275.566 1621.5,257.5C 1643.13,245.169 1664.47,232.502 1685.5,219.5 Z"/></g>
<g><path style="opacity:0.954" fill="#314572" d="M 2542.5,267.5 C 2552.83,267.5 2563.17,267.5 2573.5,267.5C 2573.5,285.5 2573.5,303.5 2573.5,321.5C 2590.83,321.5 2608.17,321.5 2625.5,321.5C 2625.5,324.833 2625.5,328.167 2625.5,331.5C 2608.17,331.5 2590.83,331.5 2573.5,331.5C 2573.33,371.501 2573.5,411.501 2574,451.5C 2572.64,463.451 2576.48,473.284 2585.5,481C 2594.17,485.667 2602.83,485.667 2611.5,481C 2616.69,477.312 2621.02,472.812 2624.5,467.5C 2627.32,468.837 2629.66,470.67 2631.5,473C 2621.94,490.793 2606.94,499.96 2586.5,500.5C 2566.85,499.934 2553.35,490.601 2546,472.5C 2544.21,462.919 2543.21,453.253 2543,443.5C 2542.5,406.168 2542.33,368.835 2542.5,331.5C 2534.5,331.5 2526.5,331.5 2518.5,331.5C 2518.5,328.167 2518.5,324.833 2518.5,321.5C 2526.5,321.5 2534.5,321.5 2542.5,321.5C 2542.5,303.5 2542.5,285.5 2542.5,267.5 Z"/></g>
<g><path style="opacity:1" fill="#314772" d="M 1501.5,271.5 C 1533.17,289.332 1564.5,307.665 1595.5,326.5C 1573.79,339.688 1551.79,352.355 1529.5,364.5C 1515.44,350.724 1506.27,334.057 1502,314.5C 1498.98,300.166 1498.82,285.832 1501.5,271.5 Z"/></g>
<g><path style="opacity:1" fill="#304672" d="M 1644.5,285.5 C 1666.56,297.854 1688.22,310.688 1709.5,324C 1698.6,356.4 1677.27,378.9 1645.5,391.5C 1644.5,356.173 1644.17,320.84 1644.5,285.5 Z"/></g>
<g><path style="opacity:0.902" fill="#f48d34" d="M 1414.5,295.5 C 1416.2,301.919 1416.87,308.585 1416.5,315.5C 1399.23,320.951 1386.39,331.617 1378,347.5C 1375.44,336.081 1377.77,325.748 1385,316.5C 1393.06,306.926 1402.9,299.926 1414.5,295.5 Z"/></g>
<g><path style="opacity:0.943" fill="#314572" d="M 1956.5,312.5 C 1971.16,311.965 1985.49,313.799 1999.5,318C 2019.45,325.623 2029.62,340.123 2030,361.5C 2030.5,406.832 2030.67,452.165 2030.5,497.5C 2020.17,497.5 2009.83,497.5 1999.5,497.5C 1999.67,487.828 1999.5,478.161 1999,468.5C 1982.8,480.684 1964.97,489.85 1945.5,496C 1918.42,500.62 1900.59,489.786 1892,463.5C 1888.76,447.583 1893.26,434.416 1905.5,424C 1920.46,413.071 1936.46,403.737 1953.5,396C 1968.5,389.833 1983.5,383.667 1998.5,377.5C 2005.04,337.876 1988.37,320.042 1948.5,324C 1939.71,325.04 1931.55,327.873 1924,332.5C 1921.38,330.888 1919.05,328.888 1917,326.5C 1916.31,325.668 1916.48,325.002 1917.5,324.5C 1929.73,317.644 1942.73,313.644 1956.5,312.5 Z M 1998.5,388.5 C 1999.66,410.663 1999.83,432.996 1999,455.5C 1986.67,466.088 1972.83,474.254 1957.5,480C 1935.65,483.904 1924.32,474.737 1923.5,452.5C 1923.86,438.956 1929.19,427.789 1939.5,419C 1944.89,414.611 1950.56,410.611 1956.5,407C 1970.24,399.958 1984.24,393.792 1998.5,388.5 Z"/></g>
<g><path style="opacity:1" fill="#314672" d="M 1631.5,319.5 C 1632.83,344.67 1632.83,370.003 1631.5,395.5C 1596.92,403.518 1565.92,396.351 1538.5,374C 1569.56,355.807 1600.56,337.64 1631.5,319.5 Z"/></g>
<g><path style="opacity:0.956" fill="#314572" d="M 2134.5,321.5 C 2144.83,321.5 2155.17,321.5 2165.5,321.5C 2165.03,369.529 2165.53,417.529 2167,465.5C 2172.83,478.513 2182.99,485.18 2197.5,485.5C 2219.31,483.014 2235.81,472.347 2247,453.5C 2249.81,446.429 2251.48,439.096 2252,431.5C 2252.5,394.835 2252.67,358.168 2252.5,321.5C 2262.83,321.5 2273.17,321.5 2283.5,321.5C 2283.5,379.5 2283.5,437.5 2283.5,495.5C 2273.17,495.5 2262.83,495.5 2252.5,495.5C 2252.67,484.495 2252.5,473.495 2252,462.5C 2231.98,494.735 2203.48,506.235 2166.5,497C 2147.35,490.191 2136.85,476.691 2135,456.5C 2134.5,411.501 2134.33,366.501 2134.5,321.5 Z"/></g>
<g><path style="opacity:1" fill="#b86a28" d="M 1753.5,318.5 C 1752.76,329.265 1751.26,339.932 1749,350.5C 1734.02,408.817 1697.52,445.984 1639.5,462C 1573.77,473.448 1522.1,451.948 1484.5,397.5C 1488.98,396.01 1493.32,394.343 1497.5,392.5C 1532.08,427.641 1574.08,443.141 1623.5,439C 1693.39,427.271 1736.72,387.105 1753.5,318.5 Z"/></g>
<g><path style="opacity:0.936" fill="#f9ab4a" d="M 2622.5,719.5 C 2627.83,719.5 2633.17,719.5 2638.5,719.5C 2638.33,736.503 2638.5,753.503 2639,770.5C 2648.02,759.693 2659.52,755.859 2673.5,759C 2684.57,762.406 2692.07,769.573 2696,780.5C 2699.85,795.732 2699.18,810.732 2694,825.5C 2682.47,844.614 2666.64,849.114 2646.5,839C 2642.96,835.799 2639.8,832.299 2637,828.5C 2636.5,833.155 2636.33,837.821 2636.5,842.5C 2631.83,842.5 2627.17,842.5 2622.5,842.5C 2622.5,801.5 2622.5,760.5 2622.5,719.5 Z M 2658.5,770.5 C 2669.5,770.669 2676.67,776.002 2680,786.5C 2684,799.466 2682.67,811.8 2676,823.5C 2665.07,834.278 2654.4,833.944 2644,822.5C 2636.67,808.167 2636.67,793.833 2644,779.5C 2647.75,774.551 2652.59,771.551 2658.5,770.5 Z"/></g>
<g><path style="opacity:0.902" fill="#f9ab4a" d="M 2882.5,722.5 C 2887.83,722.5 2893.17,722.5 2898.5,722.5C 2898.5,727.833 2898.5,733.167 2898.5,738.5C 2893.17,738.5 2887.83,738.5 2882.5,738.5C 2882.5,733.167 2882.5,727.833 2882.5,722.5 Z"/></g>
<g><path style="opacity:0.922" fill="#f9ab4a" d="M 1442.5,728.5 C 1448.17,728.5 1453.83,728.5 1459.5,728.5C 1467.49,761.448 1475.32,794.448 1483,827.5C 1490.54,794.671 1498.71,762.004 1507.5,729.5C 1514.72,728.188 1521.89,728.188 1529,729.5C 1537.31,761.42 1545.31,793.42 1553,825.5C 1561.64,793.291 1569.8,760.958 1577.5,728.5C 1582.83,728.5 1588.17,728.5 1593.5,728.5C 1583.97,766.277 1573.97,803.944 1563.5,841.5C 1556.28,842.812 1549.11,842.812 1542,841.5C 1533.84,809.871 1525.84,778.204 1518,746.5C 1509.22,778.294 1501.05,810.294 1493.5,842.5C 1485.72,843.111 1478.22,842.444 1471,840.5C 1460.98,803.273 1451.48,765.939 1442.5,728.5 Z"/></g>
<g><path style="opacity:0.922" fill="#f9ab4a" d="M 1635.5,757.5 C 1654.33,757.833 1665.83,767.167 1670,785.5C 1671.21,792.112 1671.71,798.778 1671.5,805.5C 1652.17,805.5 1632.83,805.5 1613.5,805.5C 1615.03,822.864 1624.53,831.864 1642,832.5C 1649.59,831.978 1656.76,829.978 1663.5,826.5C 1664.66,831.131 1664.83,835.798 1664,840.5C 1660.01,842.206 1655.85,843.373 1651.5,844C 1617.77,849.158 1599.77,834.825 1597.5,801C 1598.1,775.59 1610.76,761.09 1635.5,757.5 Z M 1629.5,770.5 C 1646.33,769.15 1655.33,776.983 1656.5,794C 1642.5,794.5 1628.5,794.667 1614.5,794.5C 1614.98,783.509 1619.98,775.509 1629.5,770.5 Z"/></g>
<g><path style="opacity:0.923" fill="#f9ab4a" d="M 1834.5,757.5 C 1852.88,757.719 1864.38,766.719 1869,784.5C 1870.16,791.453 1870.66,798.453 1870.5,805.5C 1851.17,805.5 1831.83,805.5 1812.5,805.5C 1814.03,822.864 1823.53,831.864 1841,832.5C 1848.59,831.978 1855.76,829.978 1862.5,826.5C 1863.66,831.131 1863.83,835.798 1863,840.5C 1859.01,842.206 1854.85,843.373 1850.5,844C 1816.81,849.173 1798.81,834.839 1796.5,801C 1797.1,775.59 1809.76,761.09 1834.5,757.5 Z M 1828.5,770.5 C 1845.07,769.056 1854.07,776.722 1855.5,793.5C 1841.52,794.499 1827.52,794.833 1813.5,794.5C 1813.98,783.509 1818.98,775.509 1828.5,770.5 Z"/></g>
<g><path style="opacity:0.923" fill="#f9ab4a" d="M 2148.5,757.5 C 2167.33,757.833 2178.83,767.167 2183,785.5C 2184.21,792.112 2184.71,798.778 2184.5,805.5C 2165.17,805.5 2145.83,805.5 2126.5,805.5C 2128.03,822.864 2137.53,831.864 2155,832.5C 2162.59,831.978 2169.76,829.978 2176.5,826.5C 2177.66,831.131 2177.83,835.798 2177,840.5C 2173.01,842.206 2168.85,843.373 2164.5,844C 2130.81,849.173 2112.81,834.839 2110.5,801C 2111.1,775.59 2123.76,761.09 2148.5,757.5 Z M 2142.5,770.5 C 2159.07,769.056 2168.07,776.722 2169.5,793.5C 2155.52,794.499 2141.52,794.833 2127.5,794.5C 2127.98,783.509 2132.98,775.509 2142.5,770.5 Z"/></g>
<g><path style="opacity:0.927" fill="#f9ab4a" d="M 2359.5,757.5 C 2381.28,757.795 2394.78,768.462 2400,789.5C 2400.67,797.167 2400.67,804.833 2400,812.5C 2397.03,829.468 2387.2,839.968 2370.5,844C 2358.58,845.899 2347.24,844.232 2336.5,839C 2327.34,832.518 2321.84,823.685 2320,812.5C 2316.33,794.471 2320.83,778.971 2333.5,766C 2341.47,760.681 2350.14,757.848 2359.5,757.5 Z M 2356.5,770.5 C 2371.05,770.21 2379.88,777.21 2383,791.5C 2384.08,800.326 2383.41,808.993 2381,817.5C 2373.24,831.796 2362.07,835.296 2347.5,828C 2337.74,818.138 2334.24,806.305 2337,792.5C 2339.16,781.102 2345.66,773.768 2356.5,770.5 Z"/></g>
<g><path style="opacity:0.936" fill="#f9ab4a" d="M 2966.5,757.5 C 2983.13,758.296 2992.63,766.963 2995,783.5C 2995.5,803.164 2995.67,822.831 2995.5,842.5C 2990.17,842.5 2984.83,842.5 2979.5,842.5C 2979.94,823.12 2979.44,803.787 2978,784.5C 2974.22,773.881 2966.72,770.048 2955.5,773C 2948.34,775.808 2943.84,780.974 2942,788.5C 2940.57,806.453 2940.07,824.453 2940.5,842.5C 2935.17,842.5 2929.83,842.5 2924.5,842.5C 2924.5,814.833 2924.5,787.167 2924.5,759.5C 2929.5,759.5 2934.5,759.5 2939.5,759.5C 2939.33,763.846 2939.5,768.179 2940,772.5C 2946.34,762.918 2955.17,757.918 2966.5,757.5 Z"/></g>
<g><path style="opacity:0.918" fill="#f9ab4a" d="M 3051.5,757.5 C 3068.65,757.975 3079.81,766.308 3085,782.5C 3086.6,790.08 3087.43,797.747 3087.5,805.5C 3068.17,805.5 3048.83,805.5 3029.5,805.5C 3030.94,822.609 3040.28,831.609 3057.5,832.5C 3065.22,831.925 3072.56,829.925 3079.5,826.5C 3080.83,831.167 3080.83,835.833 3079.5,840.5C 3075.65,842.173 3071.65,843.339 3067.5,844C 3033.75,849.241 3015.75,834.907 3013.5,801C 3013.37,774.983 3026.04,760.483 3051.5,757.5 Z M 3045.5,770.5 C 3062.73,769.06 3071.4,777.06 3071.5,794.5C 3057.48,794.833 3043.48,794.499 3029.5,793.5C 3031.05,782.989 3036.38,775.322 3045.5,770.5 Z"/></g>
<g><path style="opacity:0.915" fill="#f9ab4a" d="M 1758.5,758.5 C 1766.22,758.819 1773.72,760.152 1781,762.5C 1781.03,766.839 1780.53,771.173 1779.5,775.5C 1769.31,769.936 1758.98,769.436 1748.5,774C 1745.48,778.877 1746.15,783.21 1750.5,787C 1756.68,790.588 1763.01,793.922 1769.5,797C 1784.97,805.747 1788.47,817.914 1780,833.5C 1775.26,838.621 1769.43,841.788 1762.5,843C 1754.83,843.667 1747.17,843.667 1739.5,843C 1735.85,842.227 1732.35,841.06 1729,839.5C 1729.04,835.194 1729.54,830.861 1730.5,826.5C 1740.88,831.849 1751.54,832.683 1762.5,829C 1768.58,823.795 1768.91,818.295 1763.5,812.5C 1757.49,808.493 1751.16,804.993 1744.5,802C 1730.19,794.213 1726.69,783.046 1734,768.5C 1741.09,762.308 1749.26,758.974 1758.5,758.5 Z"/></g>
<g><path style="opacity:0.926" fill="#f9ab4a" d="M 2090.5,758.5 C 2094.5,758.5 2098.5,758.5 2102.5,758.5C 2102.5,763.833 2102.5,769.167 2102.5,774.5C 2086.55,771.734 2077.38,778.4 2075,794.5C 2074.5,810.497 2074.33,826.497 2074.5,842.5C 2069.17,842.5 2063.83,842.5 2058.5,842.5C 2058.5,814.833 2058.5,787.167 2058.5,759.5C 2063.5,759.5 2068.5,759.5 2073.5,759.5C 2073.33,763.846 2073.5,768.179 2074,772.5C 2077.56,765.431 2083.06,760.764 2090.5,758.5 Z"/></g>
<g><path style="opacity:0.92" fill="#f9ab4a" d="M 2549.5,758.5 C 2553.44,758.207 2557.27,758.54 2561,759.5C 2561.25,764.501 2561.08,769.501 2560.5,774.5C 2543.4,772.419 2534.23,780.086 2533,797.5C 2532.5,812.496 2532.33,827.496 2532.5,842.5C 2527.17,842.5 2521.83,842.5 2516.5,842.5C 2516.5,814.833 2516.5,787.167 2516.5,759.5C 2521.5,759.5 2526.5,759.5 2531.5,759.5C 2531.33,764.179 2531.5,768.845 2532,773.5C 2535.42,765.558 2541.26,760.558 2549.5,758.5 Z"/></g>
<g><path style="opacity:0.914" fill="#f9ab4a" d="M 2838.5,758.5 C 2846.22,759.135 2853.89,760.135 2861.5,761.5C 2861.73,766.248 2861.23,770.915 2860,775.5C 2850.44,770.539 2840.6,769.706 2830.5,773C 2825.3,777.583 2825.3,782.25 2830.5,787C 2837.34,790.922 2844.34,794.588 2851.5,798C 2865.07,806.467 2868.24,817.967 2861,832.5C 2856.11,838.197 2849.94,841.697 2842.5,843C 2831.31,844.159 2820.31,843.326 2809.5,840.5C 2809.5,835.833 2809.5,831.167 2809.5,826.5C 2814.44,828.09 2819.44,829.59 2824.5,831C 2831.58,832.356 2838.24,831.356 2844.5,828C 2847.72,823.788 2848.22,819.288 2846,814.5C 2836.08,808.458 2826.25,802.292 2816.5,796C 2810.01,788.286 2808.84,779.786 2813,770.5C 2819.83,762.734 2828.33,758.734 2838.5,758.5 Z"/></g>
<g><path style="opacity:0.915" fill="#f9ab4a" d="M 3127.5,758.5 C 3132.15,759.065 3136.82,759.565 3141.5,760C 3144.79,760.253 3147.79,761.253 3150.5,763C 3149.86,767.121 3149.19,771.287 3148.5,775.5C 3138.3,769.935 3127.97,769.435 3117.5,774C 3114.48,778.877 3115.15,783.21 3119.5,787C 3125.68,790.588 3132.01,793.922 3138.5,797C 3153.73,805.759 3157.23,817.926 3149,833.5C 3143.98,838.849 3137.81,842.016 3130.5,843C 3123.17,843.667 3115.83,843.667 3108.5,843C 3104.85,842.227 3101.35,841.06 3098,839.5C 3097.87,835.136 3098.37,830.803 3099.5,826.5C 3109.86,831.93 3120.53,832.764 3131.5,829C 3138.27,822.698 3137.94,816.698 3130.5,811C 3124.99,807.745 3119.32,804.745 3113.5,802C 3099.13,794.233 3095.63,783.066 3103,768.5C 3109.95,761.932 3118.12,758.599 3127.5,758.5 Z"/></g>
<g><path style="opacity:0.913" fill="#f9ab4a" d="M 3221.5,812.5 C 3221.5,817.167 3221.5,821.833 3221.5,826.5C 3214.37,839.233 3203.37,844.899 3188.5,843.5C 3180.97,843.793 3173.64,842.793 3166.5,840.5C 3166.5,835.833 3166.5,831.167 3166.5,826.5C 3171.44,828.09 3176.44,829.59 3181.5,831C 3188.86,832.493 3195.7,831.326 3202,827.5C 3205.66,821.93 3205.16,816.764 3200.5,812C 3192.67,807.92 3185,803.587 3177.5,799C 3167.3,791.625 3164.8,782.125 3170,770.5C 3177.42,762.244 3186.75,758.244 3198,758.5C 3204.87,759.319 3211.7,760.319 3218.5,761.5C 3218.81,766.267 3218.31,770.934 3217,775.5C 3207.45,770.542 3197.62,769.709 3187.5,773C 3182.59,776.962 3182.26,781.296 3186.5,786C 3196.33,791.414 3206,797.081 3215.5,803C 3218.16,805.843 3220.16,809.009 3221.5,812.5 Z"/></g>
<g><path style="opacity:0.921" fill="#f9ab4a" d="M 1914.5,759.5 C 1921.17,759.334 1927.84,759.5 1934.5,760C 1937.63,760.392 1940.63,761.225 1943.5,762.5C 1944.47,767.145 1944.47,771.812 1943.5,776.5C 1937.73,774.226 1931.73,772.892 1925.5,772.5C 1912.35,772.819 1903.52,779.152 1899,791.5C 1894.85,807.058 1899.35,819.224 1912.5,828C 1923.19,831.77 1933.53,830.937 1943.5,825.5C 1944.83,830.5 1944.83,835.5 1943.5,840.5C 1937.06,842.886 1930.39,843.886 1923.5,843.5C 1896.05,843.049 1881.71,829.049 1880.5,801.5C 1881.29,778.73 1892.62,764.73 1914.5,759.5 Z"/></g>
<g><path style="opacity:0.909" fill="#f9ab4a" d="M 1960.5,759.5 C 1965.83,759.5 1971.17,759.5 1976.5,759.5C 1976.14,778.529 1976.64,797.529 1978,816.5C 1980.18,825.189 1985.68,829.523 1994.5,829.5C 2004.99,829.183 2011.49,823.85 2014,813.5C 2015.45,795.556 2015.95,777.556 2015.5,759.5C 2021.17,759.5 2026.83,759.5 2032.5,759.5C 2032.5,787.167 2032.5,814.833 2032.5,842.5C 2027.5,842.5 2022.5,842.5 2017.5,842.5C 2017.67,838.154 2017.5,833.821 2017,829.5C 2006.63,843.424 1993.13,847.591 1976.5,842C 1966.31,835.802 1961.14,826.635 1961,814.5C 1960.5,796.17 1960.33,777.836 1960.5,759.5 Z"/></g>
<g><path style="opacity:0.913" fill="#f9ab4a" d="M 2257.5,878.5 C 2252.5,878.5 2247.5,878.5 2242.5,878.5C 2241.53,877.601 2240.86,876.434 2240.5,875C 2241.29,871.542 2241.62,868.042 2241.5,864.5C 2251.18,866.747 2258.34,863.414 2263,854.5C 2264.27,851.534 2265.43,848.534 2266.5,845.5C 2256.29,816.862 2246.29,788.195 2236.5,759.5C 2242.21,759.171 2247.87,759.505 2253.5,760.5C 2260.56,782.192 2267.73,803.859 2275,825.5C 2282.27,803.87 2289.43,782.203 2296.5,760.5C 2301.79,759.505 2307.13,759.172 2312.5,759.5C 2301.65,791.56 2290.48,823.56 2279,855.5C 2275.29,866.703 2268.12,874.37 2257.5,878.5 Z"/></g>
<g><path style="opacity:0.926" fill="#f9ab4a" d="M 2419.5,759.5 C 2424.83,759.5 2430.17,759.5 2435.5,759.5C 2435.33,777.836 2435.5,796.17 2436,814.5C 2438.73,827.294 2446.57,832.128 2459.5,829C 2469.64,823.222 2474.48,814.389 2474,802.5C 2474.5,788.171 2474.67,773.837 2474.5,759.5C 2479.83,759.5 2485.17,759.5 2490.5,759.5C 2490.5,787.167 2490.5,814.833 2490.5,842.5C 2485.5,842.5 2480.5,842.5 2475.5,842.5C 2475.67,838.154 2475.5,833.821 2475,829.5C 2464.97,843.288 2451.8,847.454 2435.5,842C 2426.53,837.679 2421.36,830.512 2420,820.5C 2419.5,800.169 2419.33,779.836 2419.5,759.5 Z"/></g>
<g><path style="opacity:0.929" fill="#f9ab4a" d="M 2717.5,759.5 C 2722.83,759.5 2728.17,759.5 2733.5,759.5C 2733.08,778.874 2733.58,798.207 2735,817.5C 2738.73,828.285 2746.23,832.118 2757.5,829C 2764.93,826.002 2769.43,820.502 2771,812.5C 2772.41,794.875 2772.91,777.209 2772.5,759.5C 2777.83,759.5 2783.17,759.5 2788.5,759.5C 2788.5,787.167 2788.5,814.833 2788.5,842.5C 2783.5,842.5 2778.5,842.5 2773.5,842.5C 2773.67,838.486 2773.5,834.486 2773,830.5C 2762.61,843.384 2749.45,847.217 2733.5,842C 2723.97,837.123 2718.8,829.289 2718,818.5C 2717.5,798.836 2717.33,779.169 2717.5,759.5 Z"/></g>
<g><path style="opacity:0.938" fill="#f9ab4a" d="M 2882.5,759.5 C 2887.83,759.5 2893.17,759.5 2898.5,759.5C 2898.5,787.167 2898.5,814.833 2898.5,842.5C 2893.17,842.5 2887.83,842.5 2882.5,842.5C 2882.5,814.833 2882.5,787.167 2882.5,759.5 Z"/></g>
</svg>
